<?xml version="1.0" encoding="UTF-8"?>
<svg id="Layer_1" data-name="Layer 1" xmlns="http://www.w3.org/2000/svg" viewBox="0 0 1168.39 233.98">
  <defs>
    <style>
      .cls-1 {
        fill: #b9ac4e;
      }

      .cls-2 {
        fill: #27283C;
      }
    </style>
  </defs>
  <g>
    <g>
      <path class="cls-2" d="m180.39,51.11c12.44,0,42.6,1.51,62.21,15.12,29.78,20.67,25.09,61.78,25.09,61.78l20.72,9.54v4.48H65.36v-4.08l20.72-9.33s-4.69-32.23,17.52-55.71c19.72-20.83,63.17-21.69,70.16-21.69.62,0,.96,0,.96,0,0,0,2.11-.12,5.66-.12m0-20.13v20.13-20.13c-2.86,0-4.96.07-6.04.12-.17,0-.36,0-.58,0-5.11,0-18.68.33-34.22,3.42-22.31,4.43-39.32,12.69-50.55,24.56-11.95,12.62-19.69,29.08-22.39,47.58-.47,3.24-.75,6.28-.9,9.06l-8.6,3.87-11.86,5.34v37.21h263.3v-37.5l-11.71-5.39-8.95-4.12c-.26-4.2-.8-9.03-1.82-14.19-4.37-22.05-15.43-39.78-31.98-51.26-10.88-7.55-24.91-12.91-41.7-15.93-12.74-2.29-24.42-2.78-31.98-2.78h0Z"/>
      <rect class="cls-2" x="166.83" y="158.35" width="20.13" height="25.46"/>
      <path class="cls-2" d="m59.55,193.47c1.06,0,1.71.12,1.71.12h227.15s.14,0,.39,0c1.97,0,11.08.45,18.04,8.44,8.02,9.21,9.44,11.83,9.44,11.83H38.03l9.33-13.72c3.98-5.85,9.44-6.66,12.18-6.66m0-20.13c-11.63,0-22.14,5.64-28.82,15.47l-9.33,13.72L0,233.98h350l-16.01-29.68c-.61-1.14-2.48-4.6-11.98-15.5-12.4-14.23-28.56-15.34-33.21-15.34-.25,0-.48,0-.68,0H62.39c-.82-.07-1.78-.12-2.84-.12h0Z"/>
      <g>
        <line class="cls-2" x1="176.89" y1="34.97" x2="177.4" y2="10.06"/>
        <rect class="cls-2" x="164.69" y="12.45" width="24.91" height="20.13" transform="translate(151.01 199.16) rotate(-88.83)"/>
      </g>
      <rect class="cls-2" x="148.01" width="59.45" height="20.13"/>
    </g>
    <g>
      <path class="cls-2" d="m138.75,116c-4.04-5.46-7.58-10.41-11.22-15.67l-.2.1c.1,6.17.2,12.43.2,18.6v23.45h-20.01v-73.18h19.51l19.41,26.48c4.04,5.46,7.58,10.41,11.22,15.67l.2-.1c-.1-6.17-.2-12.43-.2-18.6v-23.45h20.01v73.18h-19.51l-19.41-26.48Z"/>
      <path class="cls-2" d="m172.62,69.3h22.34l10.11,28.6c2.12,6.06,4.14,11.93,6.06,17.79h.2c2.02-5.96,4.25-12.23,6.37-17.99l10.41-28.4h21.43l-28,73.18h-20.92l-28-73.18Z"/>
    </g>
  </g>
  <g>
    <g>
      <path class="cls-2" d="m457.36,119.5c-6.66,3.12-14.67,4.47-21.85,4.47-25.29,0-42.25-16.86-42.25-38.71s17.59-38.92,42.25-38.92c7.49,0,14.78,1.56,20.81,4.27v21.02c-5.52-3.43-13.01-6.24-20.4-6.24-12.7,0-21.23,8.22-21.23,19.67s7.91,19.88,21.65,19.88c7.39,0,14.67-2.6,21.02-6.56v21.12Z"/>
      <path class="cls-2" d="m525.31,46.34c22.69,0,40.27,17.07,40.27,38.82s-17.59,38.82-40.27,38.82-40.27-17.07-40.27-38.82,17.59-38.82,40.27-38.82Zm0,58.38c10.61,0,18.84-8.64,18.84-19.56s-8.22-19.56-18.84-19.56-18.84,8.64-18.84,19.56,8.22,19.56,18.84,19.56Z"/>
      <path class="cls-2" d="m627.8,95.57c-4.16-5.62-7.8-10.72-11.55-16.13l-.21.1c.1,6.35.21,12.8.21,19.15v24.14h-20.6V47.49h20.08l19.98,27.26c4.16,5.62,7.8,10.72,11.55,16.13l.21-.1c-.1-6.35-.21-12.8-.21-19.15v-24.14h20.6v75.34h-20.08l-19.98-27.27Z"/>
      <path class="cls-2" d="m762.04,119.5c-6.66,3.12-14.67,4.47-21.85,4.47-25.29,0-42.25-16.86-42.25-38.71s17.59-38.92,42.25-38.92c7.49,0,14.78,1.56,20.81,4.27v21.02c-5.52-3.43-13.01-6.24-20.4-6.24-12.7,0-21.23,8.22-21.23,19.67s7.91,19.88,21.65,19.88c7.39,0,14.67-2.6,21.02-6.56v21.12Z"/>
      <path class="cls-2" d="m792.32,47.49h21.44v75.34h-21.44V47.49Z"/>
      <path class="cls-2" d="m846.43,47.49h49.12v18.11h-27.68v9.57h23.42v17.07h-23.42v12.49h28.93v18.11h-50.37V47.49Z"/>
      <path class="cls-2" d="m927.18,47.49h26.33c9.16,0,15.92,1.14,21.13,3.75,7.28,3.54,12.17,9.89,12.17,19.67,0,9.26-4.47,16.34-13.84,20.29l19.98,31.64h-24.25l-16.75-28.62h-3.33v28.62h-21.44V47.49Zm26.75,32.05c3.95,0,6.76-.52,8.43-1.56,1.98-1.14,3.02-3.12,3.02-5.93,0-3.23-1.46-5.2-3.64-6.24-1.77-.83-4.27-1.25-9.16-1.25h-3.95v14.99h5.31Z"/>
      <path class="cls-2" d="m1082.95,118.57c-6.97,3.33-16.23,5.41-25.29,5.41-25.6,0-42.67-16.44-42.67-38.4s17.79-39.23,42.25-39.23c8.85,0,16.96,2.19,23.21,5.31v20.71c-6.66-4.06-14.78-6.97-22.37-6.97-13.42,0-21.65,8.85-21.65,20.19s8.01,20.29,21.23,20.29c1.56,0,3.43-.21,4.58-.52v-8.01h-10.3v-15.71h31.01v36.94Z"/>
      <path class="cls-2" d="m1115.11,47.49h49.12v18.11h-27.68v9.57h23.42v17.07h-23.42v12.49h28.93v18.11h-50.37V47.49Z"/>
    </g>
    <g>
      <path class="cls-1" d="m418.64,186.98l-.99,2.91,12.64,16.55.16-12.7c0-1.77-.47-2.55-2.29-3.07l-2.24-.62-.16-3.07h13.42l-.21,3.07-2.03.62c-1.56.47-1.93,1.41-1.98,3.07l-.57,17.33,1.25,9.89-9.16,1.2-16.96-22.84-.26,15.51c-.05,1.77.47,2.55,2.29,3.07l2.24.62.16,3.07h-13.42l.21-3.07,2.03-.62c1.56-.47,1.92-1.41,1.98-3.07l.52-20.03c.05-2.24-.83-3.54-2.5-4.11l-1.82-.62-.16-3.07h17.85Z"/>
      <path class="cls-1" d="m495.49,186.05c11.66,0,19.62,6.56,19.62,17.79,0,11.92-9.11,18.58-20.76,18.58s-19.72-6.56-19.72-17.95c0-12.07,9.26-18.42,20.86-18.42Zm-1.04,4.42c-3.28,0-5.52,3.54-5.52,12.33,0,10.98,2.81,15.14,6.45,15.14,3.23,0,5.41-3.54,5.41-12.33,0-10.93-2.65-15.14-6.35-15.14Z"/>
      <path class="cls-1" d="m588.94,186.98l-.21,3.07-1.61.52c-1.82.57-2.29,1.77-2.39,3.43l-.88,17.01c-.42,7.54-5.78,11.6-14.57,11.6s-14.52-3.96-14.52-11.19l-.05-17.64c0-1.72-.47-2.6-2.03-3.12l-1.82-.62-.16-3.07h21.02l-.21,3.07-2.08.62c-1.56.47-1.87,1.35-1.92,3.02l-.36,17.48c-.05,3.59,2.29,6.3,6.24,6.3,3.69,0,6.04-2.55,6.19-6.19l.62-17.22c.05-1.82-.68-2.97-2.76-3.49l-2.13-.52-.16-3.07h13.79Z"/>
      <path class="cls-1" d="m626.66,193.12c-.42-1.25-.88-1.98-2.08-2.45l-1.51-.62-.16-3.07h20.81l-.21,3.07-3.75,1.3c-.31.31-.1,1.61.26,2.96l5.25,19.41,6.66-20.45c.16-.42.21-.83.21-1.2,0-.62-.31-1.2-.99-1.35l-3.17-.68-.21-3.07h13.42l-.16,3.07-1.98.68c-1.04.31-1.72,1.04-2.13,2.03l-8.43,23.26-1.3,5.1-11.92,1.04-8.64-29.03Z"/>
      <path class="cls-1" d="m720.62,186.98l3.59-.94.73,10.51-3.17.36-1.77-3.49c-.83-1.61-1.46-2.5-3.43-2.6l-2.91-.16c-.83,0-1.2.36-1.25,1.04l-.21,3.54-.16,7.49,4.06-.16c.78-.05,1.41-.1,1.56-.36l1.61-2.81,2.86-.05v10.67l-3.02-.05-1.41-3.23c-.1-.26-.99-.31-1.77-.31l-4.01-.1-.26,11.66,6.19-.31c1.82-.1,2.5-.62,3.23-1.61l3.49-4.53,2.86,1.2-2.97,9.37-10.46-.52h-18.99l.21-3.07,2.08-.62c1.56-.47,1.98-1.41,1.98-3.07l.31-21.02c0-1.72-.42-2.65-1.92-3.12l-1.98-.62-.16-3.07h25.08Z"/>
      <path class="cls-1" d="m791.85,222.1l-10.41-.52h-18.47l.21-3.07,2.08-.62c1.56-.47,1.98-1.41,1.98-3.07l.31-21.02c0-1.72-.47-2.6-2.08-3.12l-1.98-.62-.16-3.07h21.75l-.21,3.07-2.6.68c-1.46.36-1.87,1.3-1.92,2.97l-.73,22.69c-.05.88.26,1.56.73,1.51l4.27-.21c1.77-.1,2.45-.62,3.23-1.61l4.21-5.41,3.02,1.2-3.23,10.25Z"/>
      <path class="cls-1" d="m858.34,222.1l-10.41-.52h-18.47l.21-3.07,2.08-.62c1.56-.47,1.98-1.41,1.98-3.07l.31-21.02c0-1.72-.47-2.6-2.08-3.12l-1.98-.62-.16-3.07h21.75l-.21,3.07-2.6.68c-1.46.36-1.87,1.3-1.92,2.97l-.73,22.69c-.05.88.26,1.56.73,1.51l4.27-.21c1.77-.1,2.45-.62,3.23-1.61l4.21-5.41,3.02,1.2-3.23,10.25Z"/>
      <path class="cls-1" d="m921.51,186.98l3.59-.94.73,10.51-3.17.36-1.77-3.49c-.83-1.61-1.46-2.5-3.43-2.6l-2.91-.16c-.83,0-1.2.36-1.25,1.04l-.21,3.54-.16,7.49,4.06-.16c.78-.05,1.41-.1,1.56-.36l1.61-2.81,2.86-.05v10.67l-3.02-.05-1.41-3.23c-.1-.26-.99-.31-1.77-.31l-4.01-.1-.26,11.66,6.19-.31c1.82-.1,2.5-.62,3.23-1.61l3.49-4.53,2.86,1.2-2.97,9.37-10.46-.52h-18.99l.21-3.07,2.08-.62c1.56-.47,1.98-1.41,1.98-3.07l.31-21.02c0-1.72-.42-2.65-1.92-3.12l-1.98-.62-.16-3.07h25.08Z"/>
      <path class="cls-1" d="m1009.8,193.12c-.42-1.25-.88-1.98-2.08-2.45l-1.51-.62-.16-3.07h20.81l-.21,3.07-3.75,1.3c-.31.31-.1,1.61.26,2.96l5.25,19.41,6.66-20.45c.16-.42.21-.83.21-1.2,0-.62-.31-1.2-.99-1.35l-3.17-.68-.21-3.07h13.42l-.16,3.07-1.98.68c-1.04.31-1.72,1.04-2.13,2.03l-8.43,23.26-1.3,5.1-11.92,1.04-8.64-29.03Z"/>
      <path class="cls-1" d="m1099.76,186.98l-.21,3.07-2.03.62c-1.56.47-1.87,1.35-1.92,3.02l-.73,21.13c-.05,1.66.36,2.45,2.19,3.07l1.87.62.16,3.07h-20.87l.21-3.07,2.08-.62c1.56-.47,1.98-1.41,1.98-3.07l.31-21.02c0-1.72-.47-2.6-2.08-3.12l-1.98-.62-.16-3.07h21.18Z"/>
      <path class="cls-1" d="m1161.57,186.98l3.59-.94.73,10.51-3.17.36-1.77-3.49c-.83-1.61-1.46-2.5-3.43-2.6l-2.91-.16c-.83,0-1.2.36-1.25,1.04l-.21,3.54-.16,7.49,4.06-.16c.78-.05,1.41-.1,1.56-.36l1.61-2.81,2.86-.05v10.67l-3.02-.05-1.41-3.23c-.1-.26-.99-.31-1.77-.31l-4.01-.1-.26,11.66,6.19-.31c1.82-.1,2.5-.62,3.23-1.61l3.49-4.53,2.86,1.2-2.97,9.37-10.46-.52h-18.99l.21-3.07,2.08-.62c1.56-.47,1.98-1.41,1.98-3.07l.31-21.02c0-1.72-.42-2.65-1.92-3.12l-1.98-.62-.16-3.07h25.08Z"/>
    </g>
  </g>
</svg>