<?xml version="1.0" encoding="utf-8"?>
<!-- Generator: Adobe Illustrator 27.2.0, SVG Export Plug-In . SVG Version: 6.00 Build 0)  -->
<svg version="1.1" id="Layer_1" xmlns="http://www.w3.org/2000/svg" xmlns:xlink="http://www.w3.org/1999/xlink" x="0px" y="0px"
	 viewBox="0 0 1713.2 632.7" style="enable-background:new 0 0 1713.2 632.7;" xml:space="preserve">
<style type="text/css">
	.st0{fill:#D6D6D6;}
	.st1{fill:#FFFFFF;}
	.st2{fill:#EA9600;}
</style>
<g>
	<g>
		<g>
			<polygon class="st0" points="1197.5,434.5 1283,632.7 1326,632.7 1403.6,434.5 			"/>
			<path class="st0" d="M1065.4,129.3l29.8,68.8h158l-30.2-68.8c-28.3-71.2-21.9-104.2,47-104.2c0-11.1,0-25.1,0-25.1H958.4
				c0,0,0,6.4,0,25.1C1026.4,25.1,1037.1,71.2,1065.4,129.3z"/>
			<path class="st0" d="M1415.5,0c0,0,0,6.4,0,25.1c68.8,0,91.5,28.3,69.6,104.2l-27.1,68.8h38.6l27.1-68.8
				c21.9-55.7,45.4-104.2,115-104.2c0-11.1,0-25.1,0-25.1S1415.5,0,1415.5,0z"/>
		</g>
		<g>
			<path class="st0" d="M764.2,129.3v68.8h34.6v-68.8c0-78.4,11.1-104.2,80.8-104.2c0-18.7,0-25.1,0-25.1H674.3c0,0,0,6.4,0,25.1
				C742.3,25.1,764.2,51.7,764.2,129.3z"/>
			<path class="st0" d="M293.1,129.3v68.8h35.4v-89.9l71.2,89.9H613L453.8,0H213.5c0,0,0,13.9,0,25.1
				C281.9,25.1,293.1,72,293.1,129.3z"/>
			<polygon class="st0" points="587.1,434.5 743.9,632.7 798.8,632.7 798.8,434.5 			"/>
			<path class="st0" d="M328.1,504.1v-69.6h-35v69.6c0,76.8-11.1,104.2-80,104.2c0,18.7,0,24.3,0,24.3h205.3c0,0,0-5.6,0-24.3
				C350,608.4,328.1,580.9,328.1,504.1z"/>
		</g>
	</g>
	<path class="st1" d="M108.6,352.9c-2.8,11.5-8.8,21.5-17.9,29c-8.8,7.6-20.7,11.5-34.2,11.5c-17.1,0-31-5.6-41-16.3
		C5.2,366.5,0,352.9,0,337.4c0-15.9,5.2-29.4,15.5-40.2c10.3-10.7,23.9-16.3,41-16.3c14.3,0,25.5,3.6,34.2,11.5
		c8.8,7.6,15.1,17.1,17.9,28.6H88.3c-2.4-7.1-6.3-12.6-12.3-17c-6-4.8-12.7-7.2-20.7-7.2c-10.3,0-19.1,3.6-25.9,11.1
		s-9.9,17.1-9.9,29s3.2,21.5,9.9,29S44.9,377,55.3,377c8,0,14.7-2.4,20.7-7.2c6-4.8,9.5-10.3,12.3-17.1L108.6,352.9L108.6,352.9z"/>
	<path class="st1" d="M650.4,283.7v106.6h-23.1c-11.5-15.1-33-42.6-64.1-82.8v82.8h-18.7V283.7h22.3c15.1,19.9,36.6,47.3,64.1,82.8
		v-82.8H650.4z"/>
	<path class="st1" d="M840.6,321.1H831c-2.4-7.2-6.4-12.7-12.3-17.1c-6-4.8-12.7-7.2-20.7-7.2c-10.3,0-19.1,3.6-25.9,11.1
		c-6.8,7.6-9.9,17.1-9.9,29s3.2,21.5,9.9,29c6.8,7.6,15.5,11.1,25.9,11.1c8,0,14.7-2.4,20.7-7.2c6-4.8,9.5-10.3,12.3-17.1h8h12.3
		c-2.8,11.5-8.8,21.5-17.9,29c-8.8,7.6-20.7,11.5-34.2,11.5c-17.1,0-31-5.6-41-16.3c-10.3-10.7-15.5-24.3-15.5-39.8
		c0-15.9,5.2-29.4,15.5-40.2c10.3-10.7,23.9-16.3,41-16.3c14.3,0,25.5,3.6,34.2,11.5c8.8,7.6,15.1,17.1,17.9,29H840.6L840.6,321.1
		L840.6,321.1z"/>
	<path class="st1" d="M943.6,343.8v-60.1H956h7.6v106.6H944L943.6,343.8L943.6,343.8z"/>
	<path class="st1" d="M1055.8,283.7h19.5h66.8v15.9h-66.8v28.6h60.5v15.9h-60.5v30.6h66.8v15.9h-66.8h-19.5V283.7z"/>
	<path class="st1" d="M1300.9,347.4c7.2-1.2,12.7-3.6,16.7-7.2c7.2-6,10.7-13.9,10.7-23.9c0-9.9-3.2-17.9-10.7-23.9
		c-7.2-6-17.9-8.8-32.2-8.8h-50.9v106.6h19.5V349h25.5c15.1,20.7,25.1,34.2,30.6,41.4h23.9C1319.6,370.8,1308.5,356.5,1300.9,347.4z
		 M1254,333v-33.4h31.4c7.2,0,12.7,1.2,16.7,3.6c4.4,2.8,6,7.2,6,13.1s-1.6,10.3-6,13.1c-3.6,2.4-9.5,3.6-16.7,3.6L1254,333
		L1254,333z"/>
	<path class="st1" d="M1505.1,303.6c-5.2-4.4-12.3-6-21.5-6.4c-10.7,0-19.5,3.6-26.3,11.1s-9.9,17.1-9.9,29s3.2,21.5,10.3,29
		c7.2,7.6,15.5,11.1,26.3,11.1c9.9,0,17.9-2.8,24.3-8.4c6-6,9.5-12.3,10.7-19.5h-38.2v-5.2v-9.9h34.6h19.1v23.9v32.2h-14.3
		c-0.4-2.4-0.8-7.2-1.2-13.5c-0.4,0.4-0.4,0.8-0.8,1.2c-8,9.9-19.5,15.1-35,15.1c-16.7,0-30.6-5.6-41-16.3
		c-10.3-10.7-15.9-24.3-15.9-39.8c0-15.9,5.2-29.4,15.5-40.2c10.3-10.7,23.9-16.3,41-16.3c13.9,0,25.5,3.6,34.6,10.7
		c9.2,7.2,14.7,15.9,16.3,25.5h-19.1C1513.4,312.3,1510.6,308,1505.1,303.6z"/>
	<path class="st1" d="M1626.8,283.7h19.5h66.8v15.9h-66.8v28.6h60.5v15.9h-60.5v30.6h66.8v15.9h-66.8h-19.5V283.7z"/>
	<g>
		<g>
			<path class="st1" d="M367.5,326.5h7.6c2,0,3.6-1.6,3.6-3.6s-1.6-3.6-3.6-3.6H362l-15.5-31c-0.4-1.2-1.6-2-3.2-2h-33.8H309h-0.4
				h-33.4c-1.2,0-2.4,0.8-3.2,2l-15.9,31h-12.7c-2,0-3.6,1.6-3.6,3.6s1.6,3.6,3.6,3.6h8c-6.4,2.4-10.7,8.8-10.7,15.9v17.9
				c0,7.2,4.4,13.1,10.3,15.9v12.3c0,1.6,1.2,2.8,2.8,2.8H270c2,0,3.2-1.6,2.8-3.2v-10.7H348v11.1c0,1.6,1.2,2.8,2.8,2.8h16.3
				c2,0,2.8-1.6,2.8-3.2V375v-0.4c4.4-3.2,7.2-8,7.6-14.3v-17.9C378.7,335.2,373.9,329.3,367.5,326.5z M277.2,293.4h31.4h0.4h0.4
				h31.8l15.9,31.8h-95.9l0,0c0.4-0.4,0.4-0.8,0.4-1.2L277.2,293.4z M361.6,370.6H258.1c-5.6,0-10.3-4.8-10.3-10.3v-2.4
				c2.8,3.2,6.8,5.6,11.1,5.6c8,0,14.3-6.4,14.3-14.3s-6.4-14.3-14.3-14.3c-4.4,0-8.4,2-10.7,5.2c0.8-3.6,3.2-6,6.8-7.2
				c0.4,0,0.4,0,0.8,0c0.8,0,1.6-0.4,2-0.8c0.4,0,0.4,0,0.8,0h103.1c0.4,0.4,1.2,0.8,2,0.8c0.4,0,0.8,0,1.2-0.4
				c3.6,1.2,6.8,4.4,7.6,8c-2.4-3.6-6.8-5.6-11.1-5.6c-8,0-14.3,6.4-14.3,14.3s6.4,14.3,14.3,14.3c4.8,0,8.8-2.4,11.5-6v2.8
				C371.5,366.3,367.1,370.6,361.6,370.6z M251.3,349.2c0-4,3.2-7.6,7.6-7.6s7.6,3.2,7.6,7.6s-3.2,7.6-7.6,7.6
				S251.3,353.1,251.3,349.2z M367.5,349.2c0,4-3.2,7.6-7.6,7.6s-7.6-3.2-7.6-7.6s3.2-7.6,7.6-7.6S367.5,345.2,367.5,349.2z"/>
			<path class="st1" d="M334.5,355.1h-50.1c-2,0-3.6,1.6-3.6,3.6s1.6,3.6,3.6,3.6h50.1c2,0,3.6-1.6,3.6-3.6S336.5,355.1,334.5,355.1
				z"/>
		</g>
		<g>
			<path class="st2" d="M145.5,401.7h327.9c2.8,0,5.2-2.4,5.2-5.2s-2.4-5.2-5.2-5.2h-16.3c-2.8-77.6-65.3-140.1-142.8-142.8v-8.8
				h12.3c7.2,0,13.5-6.4,13.5-13.5c0-7.6-6-13.5-13.5-13.5h-34.2c-7.6,0-13.5,6-13.5,13.5c0,7.6,6,13.5,13.5,13.5h12.3v8.8
				c-77.6,2.8-140.1,65.3-142.8,142.8h-16.3c-2.8,0-5.2,2.4-5.2,5.2S142.7,401.7,145.5,401.7z M309.4,258.8
				c74.4,0,134.9,58.9,137.7,132.5H171.8C174.5,317.7,235,258.8,309.4,258.8z"/>
			<path class="st2" d="M473.4,409.6H145.5c-2.8,0-5.2,2.4-5.2,5.2c0,2.8,2.4,5.2,5.2,5.2h327.9c2.8,0,5.2-2.4,5.2-5.2
				S476.2,409.6,473.4,409.6z"/>
		</g>
	</g>
</g>
</svg>
